<svg width="16" height="20" viewBox="0 0 16 20" fill="none" xmlns="http://www.w3.org/2000/svg">
<path fill-rule="evenodd" clip-rule="evenodd" d="M8.01697 0.11792C4.0865 0.11792 0.880798 2.98443 0.880798 6.49903C0.880798 7.49608 1.333 8.63991 1.94627 9.88899C2.55953 11.1381 3.34934 12.4647 4.15154 13.6999C5.75594 16.1732 7.37273 18.242 7.37273 18.242L8.01697 19.084L8.66121 18.242C8.66121 18.242 10.278 16.1732 11.8824 13.6999C12.6846 12.4647 13.4744 11.1381 14.0877 9.88899C14.7009 8.63991 15.1531 7.49608 15.1531 6.49903C15.1531 2.98443 11.9474 0.11792 8.01697 0.11792ZM8.017 1.53589C11.0926 1.53589 13.5674 3.74878 13.5674 6.49897C13.5674 7.06674 13.2267 8.14133 12.6506 9.31286C12.0745 10.4844 11.2785 11.7833 10.4948 12.9909C9.28388 14.8602 8.51823 15.8729 8.05544 16.4851L8.05542 16.4851L8.017 16.5359L7.97859 16.4851C7.5158 15.873 6.75015 14.8603 5.53916 12.9909C4.75555 11.7833 3.95954 10.4844 3.38344 9.31286C2.80735 8.14133 2.46665 7.06674 2.46665 6.49897C2.46665 3.74878 4.94138 1.53589 8.017 1.53589ZM6.43117 6.49883C6.43117 5.71504 7.14045 5.08081 8.01698 5.08081C8.89352 5.08081 9.6028 5.71504 9.6028 6.49883C9.6028 7.28263 8.89352 7.91686 8.01698 7.91686C7.14045 7.91686 6.43117 7.28263 6.43117 6.49883Z" fill="#9B9B9B"/>
</svg>
