<svg width="26" height="25" viewBox="0 0 26 25" fill="none" xmlns="http://www.w3.org/2000/svg">
<path fill-rule="evenodd" clip-rule="evenodd" d="M23.1367 1.21873C23.418 1.10935 23.7344 1.0117 24.0703 0.996071C24.4063 0.980446 24.7695 1.04685 25.1367 1.2656C25.5 1.48045 25.8008 1.88279 25.918 2.31248C26.0352 2.74217 26.0078 3.18357 25.9024 3.65623L22.168 22.7851L22.1328 22.875C22.1328 22.875 21.9219 23.4336 21.3789 23.8711C20.8399 24.3047 19.8203 24.5508 18.8125 24.1094L18.7031 24.0625L13.8711 20.3554L10.9883 22.9804L10.9531 23.0078C10.9531 23.0078 10.332 23.4883 9.55861 23.2539L9.55137 23.2528C9.50514 23.2457 9.47859 23.2416 9.44142 23.2304C9.43635 23.2288 9.43128 23.2256 9.42589 23.2223C9.41883 23.2179 9.41122 23.2131 9.40236 23.2109L9.4122 23.2132C9.40489 23.2106 9.39777 23.2074 9.39064 23.2031C9.32814 23.1797 9.26564 23.1523 9.20705 23.1172C9.05861 23.0234 8.93361 22.9062 8.82814 22.7656C8.60939 22.4922 8.43361 22.1328 8.25392 21.5586C8.06186 20.9528 7.4864 19.0712 7.03244 17.5868C6.76624 16.7164 6.54181 15.9825 6.46095 15.7226L1.57814 14.0781H1.57033C1.57033 14.0781 1.24611 13.9648 0.906266 13.7226C0.570329 13.4844 0.101579 13.0508 0.0117353 12.3281C-0.0429527 11.9023 0.105485 11.4883 0.289079 11.2187C0.472672 10.9492 0.68361 10.7773 0.875016 10.6523C1.17252 10.4478 1.46018 10.3318 1.56638 10.2925C1.91698 10.1447 6.9421 8.02621 12.0508 5.87498C13.3023 5.34784 14.5581 4.81896 15.7519 4.31624C17.088 3.75353 18.3464 3.22361 19.4336 2.7656C19.8515 2.59037 20.2404 2.4272 20.5972 2.27748C21.9984 1.68962 22.9056 1.30901 23.1328 1.21873H23.1367ZM23.968 3.08824C23.9678 3.07711 23.9676 3.06492 23.9688 3.04685C23.9439 3.04685 23.9366 3.04685 23.9302 3.04923C23.9215 3.05247 23.9145 3.0601 23.8672 3.0781C23.7813 3.11326 22.2617 3.74607 20.207 4.60935C18.485 5.33615 16.3294 6.24405 14.1151 7.17666C13.6874 7.3568 13.2575 7.53787 12.8281 7.71873C7.53127 9.9492 2.32033 12.1445 2.32033 12.1445L2.28908 12.1562L2.25783 12.1719C2.25783 12.1719 2.23049 12.1836 2.22658 12.1836C2.22853 12.1836 2.23146 12.1845 2.23439 12.1855C2.23732 12.1865 2.24025 12.1875 2.2422 12.1875V12.1914L8.07814 14.1562L8.08205 14.1758L20.2578 6.63279C20.2578 6.63279 20.8867 6.31248 20.8594 6.7656C20.8594 6.7656 20.9922 6.84373 20.5938 7.21482C20.1953 7.58592 10.9375 16.2148 10.9375 16.2148L10.1875 21.0039L13.7578 17.75L19.668 22.2812C19.9922 22.4101 20.0547 22.3711 20.1328 22.3086C20.1993 22.2561 20.2282 22.2037 20.2447 22.1736C20.2466 22.1701 20.2484 22.1669 20.25 22.164L23.9492 3.23435V3.22263C23.9687 3.13655 23.9684 3.11561 23.968 3.08824Z" fill="#9B9B9B"/>
</svg>
